<svg width="62" height="25" viewBox="0 0 62 25" fill="none" xmlns="http://www.w3.org/2000/svg">
<g clip-path="url(#clip0_5775_24627)">
<path d="M11.0149 16.6491H8.3173V12.7719H6.56386V16.6491H3.82129V6.61402H6.56386V10.3544H8.3173V6.61402H11.0149V16.6491ZM23.289 16.6947C26.0316 16.6947 28.2796 14.3684 28.2796 11.5403C28.2796 8.71226 26.0316 6.47717 23.289 6.47717C20.5465 6.47717 19.1077 8.5298 18.748 9.35086C18.748 8.11928 17.5341 6.61402 16.0954 6.61402H11.5544V16.6491H15.8256C17.5791 16.6491 18.793 15.1438 18.793 13.821C19.1527 14.6421 20.5015 16.6947 23.289 16.6947ZM15.466 12.6351C15.8706 12.6351 16.1853 13.0456 16.1853 13.4561C16.1853 13.9123 15.8706 14.3228 15.466 14.3228H14.1172V12.6351H15.466ZM15.466 8.8491C15.8706 8.8491 16.1853 9.25963 16.1853 9.67016C16.1853 10.0807 15.8706 10.4912 15.466 10.4912H14.1172V8.80349C14.1172 8.8491 15.466 8.8491 15.466 8.8491ZM17.2644 11.5403C17.5791 11.4947 18.1186 11.1298 18.2984 10.9473C18.2085 11.221 18.2085 12.0421 18.2984 12.3158C18.0736 11.9965 17.5791 11.5859 17.2644 11.5403ZM20.7713 11.5403C20.7713 10.1263 21.8953 8.98595 23.289 8.98595C24.6828 8.98595 25.8068 10.1719 25.7618 11.5859C25.7169 13 24.6378 14.0947 23.2441 14.0947C21.8953 14.0947 20.7713 12.9544 20.7713 11.5403ZM23.289 13.5473C24.3681 13.5473 25.2673 12.6351 25.2673 11.5403C25.2673 10.4456 24.3681 9.53331 23.289 9.53331C22.21 9.53331 21.3108 10.4 21.3108 11.5403C21.3108 12.6807 22.165 13.5473 23.289 13.5473Z" fill="black"/>
<path d="M42.6217 10.1719C42.5768 7.75432 40.8683 6.47713 38.8001 6.47713C37.6761 6.47713 36.6421 6.84205 35.9227 7.61748C35.2033 6.84205 34.2142 6.47713 33.0452 6.47713C30.9771 6.47713 29.2686 7.75432 29.2236 10.1719V15.7368C29.2236 16.2385 29.6283 16.6491 30.1228 16.6491H31.022C31.112 16.6491 31.1569 16.5578 31.1569 16.5122V10.2175C31.2019 9.03152 32.0112 8.39292 33.0452 8.39292C34.0793 8.39292 34.9336 9.03152 34.9336 10.2175V15.7368C34.9336 16.2385 35.3382 16.6491 35.8328 16.6491H36.687C36.7769 16.6491 36.8219 16.5578 36.8219 16.5122V10.1719C36.8669 8.9859 37.6761 8.34731 38.7102 8.34731C39.7443 8.34731 40.5985 8.9859 40.5985 10.1719V15.6912C40.5985 16.1929 41.0032 16.6034 41.4977 16.6034H42.352C42.4419 16.6034 42.4869 16.5122 42.4869 16.4666L42.6217 10.1719ZM61.9096 6.61397H60.4709C60.0663 6.61397 59.7066 6.84204 59.4818 7.16134L57.8632 9.57889C57.6384 9.89819 57.1888 9.89819 56.964 9.57889L55.3455 7.16134C55.1207 6.84204 54.761 6.61397 54.3563 6.61397H52.9176C52.8277 6.61397 52.7827 6.7052 52.8277 6.79643L55.7051 11.1298C55.9299 11.4491 55.9299 11.8596 55.7051 12.1789L52.8277 16.5122C52.7827 16.6034 52.8277 16.6947 52.9176 16.6947H54.3563C54.761 16.6947 55.1207 16.4666 55.3455 16.1473L56.964 13.7298C57.1888 13.4105 57.6384 13.4105 57.8632 13.7298L59.4818 16.1473C59.7066 16.4666 60.0663 16.6947 60.4709 16.6947H61.9096C61.9996 16.6947 62.0445 16.6034 61.9996 16.5122L59.1221 12.2245C58.8973 11.9052 58.8973 11.4947 59.1221 11.1754L61.9996 6.84204C62.0445 6.75082 61.9996 6.61397 61.9096 6.61397ZM52.1533 6.61397H51.2991C50.8494 6.61397 50.4898 6.93327 50.3998 7.3438C49.6355 6.75082 48.6914 6.43152 47.6573 6.43152C45.1395 6.43152 43.1163 8.21047 43.1163 11.5403C43.1163 14.8701 45.1395 16.6491 47.6573 16.6491C48.6914 16.6491 49.6355 16.3754 50.3998 15.7824C50.4448 16.2385 50.8494 16.6034 51.2991 16.6034H52.1533C52.2432 16.6034 52.2882 16.5122 52.2882 16.4666V6.79643C52.2882 6.7052 52.2432 6.61397 52.1533 6.61397ZM47.6573 14.7789C46.1736 14.7789 44.9597 13.6841 44.9597 11.5859C44.9597 9.48766 46.1736 8.39292 47.6573 8.39292C49.141 8.39292 50.3549 9.48766 50.3549 11.5859C50.3549 13.6841 49.141 14.7789 47.6573 14.7789Z" fill="black"/>
<path d="M42.6217 10.1719C42.5768 7.75432 40.8683 6.47713 38.8001 6.47713C37.6761 6.47713 36.6421 6.84205 35.9227 7.61748C35.2033 6.84205 34.2142 6.47713 33.0452 6.47713C30.9771 6.47713 29.2686 7.75432 29.2236 10.1719V15.7368C29.2236 16.2385 29.6283 16.6491 30.1228 16.6491H31.022C31.112 16.6491 31.1569 16.5578 31.1569 16.5122V10.2175C31.2019 9.03152 32.0112 8.39292 33.0452 8.39292C34.0793 8.39292 34.9336 9.03152 34.9336 10.2175V15.7368C34.9336 16.2385 35.3382 16.6491 35.8328 16.6491H36.687C36.7769 16.6491 36.8219 16.5578 36.8219 16.5122V10.1719C36.8669 8.9859 37.6761 8.34731 38.7102 8.34731C39.7443 8.34731 40.5985 8.9859 40.5985 10.1719V15.6912C40.5985 16.1929 41.0032 16.6034 41.4977 16.6034H42.352C42.4419 16.6034 42.4869 16.5122 42.4869 16.4666L42.6217 10.1719ZM61.9096 6.61397H60.4709C60.0663 6.61397 59.7066 6.84204 59.4818 7.16134L57.8632 9.57889C57.6384 9.89819 57.1888 9.89819 56.964 9.57889L55.3455 7.16134C55.1207 6.84204 54.761 6.61397 54.3563 6.61397H52.9176C52.8277 6.61397 52.7827 6.7052 52.8277 6.79643L55.7051 11.1298C55.9299 11.4491 55.9299 11.8596 55.7051 12.1789L52.8277 16.5122C52.7827 16.6034 52.8277 16.6947 52.9176 16.6947H54.3563C54.761 16.6947 55.1207 16.4666 55.3455 16.1473L56.964 13.7298C57.1888 13.4105 57.6384 13.4105 57.8632 13.7298L59.4818 16.1473C59.7066 16.4666 60.0663 16.6947 60.4709 16.6947H61.9096C61.9996 16.6947 62.0445 16.6034 61.9996 16.5122L59.1221 12.2245C58.8973 11.9052 58.8973 11.4947 59.1221 11.1754L61.9996 6.84204C62.0445 6.75082 61.9996 6.61397 61.9096 6.61397ZM52.1533 6.61397H51.2991C50.8494 6.61397 50.4898 6.93327 50.3998 7.3438C49.6355 6.75082 48.6914 6.43152 47.6573 6.43152C45.1395 6.43152 43.1163 8.21047 43.1163 11.5403C43.1163 14.8701 45.1395 16.6491 47.6573 16.6491C48.6914 16.6491 49.6355 16.3754 50.3998 15.7824C50.4448 16.2385 50.8494 16.6034 51.2991 16.6034H52.1533C52.2432 16.6034 52.2882 16.5122 52.2882 16.4666V6.79643C52.2882 6.7052 52.2432 6.61397 52.1533 6.61397ZM47.6573 14.7789C46.1736 14.7789 44.9597 13.6841 44.9597 11.5859C44.9597 9.48766 46.1736 8.39292 47.6573 8.39292C49.141 8.39292 50.3549 9.48766 50.3549 11.5859C50.3549 13.6841 49.141 14.7789 47.6573 14.7789Z" fill="black"/>
<path d="M42.6217 10.1719C42.5768 7.75432 40.8683 6.47713 38.8001 6.47713C37.6761 6.47713 36.6421 6.84205 35.9227 7.61748C35.2033 6.84205 34.2142 6.47713 33.0452 6.47713C30.9771 6.47713 29.2686 7.75432 29.2236 10.1719V15.7368C29.2236 16.2385 29.6283 16.6491 30.1228 16.6491H31.022C31.112 16.6491 31.1569 16.5578 31.1569 16.5122V10.2175C31.2019 9.03152 32.0112 8.39292 33.0452 8.39292C34.0793 8.39292 34.9336 9.03152 34.9336 10.2175V15.7368C34.9336 16.2385 35.3382 16.6491 35.8328 16.6491H36.687C36.7769 16.6491 36.8219 16.5578 36.8219 16.5122V10.1719C36.8669 8.9859 37.6761 8.34731 38.7102 8.34731C39.7443 8.34731 40.5985 8.9859 40.5985 10.1719V15.6912C40.5985 16.1929 41.0032 16.6034 41.4977 16.6034H42.352C42.4419 16.6034 42.4869 16.5122 42.4869 16.4666L42.6217 10.1719ZM61.9096 6.61397H60.4709C60.0663 6.61397 59.7066 6.84204 59.4818 7.16134L57.8632 9.57889C57.6384 9.89819 57.1888 9.89819 56.964 9.57889L55.3455 7.16134C55.1207 6.84204 54.761 6.61397 54.3563 6.61397H52.9176C52.8277 6.61397 52.7827 6.7052 52.8277 6.79643L55.7051 11.1298C55.9299 11.4491 55.9299 11.8596 55.7051 12.1789L52.8277 16.5122C52.7827 16.6034 52.8277 16.6947 52.9176 16.6947H54.3563C54.761 16.6947 55.1207 16.4666 55.3455 16.1473L56.964 13.7298C57.1888 13.4105 57.6384 13.4105 57.8632 13.7298L59.4818 16.1473C59.7066 16.4666 60.0663 16.6947 60.4709 16.6947H61.9096C61.9996 16.6947 62.0445 16.6034 61.9996 16.5122L59.1221 12.2245C58.8973 11.9052 58.8973 11.4947 59.1221 11.1754L61.9996 6.84204C62.0445 6.75082 61.9996 6.61397 61.9096 6.61397ZM52.1533 6.61397H51.2991C50.8494 6.61397 50.4898 6.93327 50.3998 7.3438C49.6355 6.75082 48.6914 6.43152 47.6573 6.43152C45.1395 6.43152 43.1163 8.21047 43.1163 11.5403C43.1163 14.8701 45.1395 16.6491 47.6573 16.6491C48.6914 16.6491 49.6355 16.3754 50.3998 15.7824C50.4448 16.2385 50.8494 16.6034 51.2991 16.6034H52.1533C52.2432 16.6034 52.2882 16.5122 52.2882 16.4666V6.79643C52.2882 6.7052 52.2432 6.61397 52.1533 6.61397ZM47.6573 14.7789C46.1736 14.7789 44.9597 13.6841 44.9597 11.5859C44.9597 9.48766 46.1736 8.39292 47.6573 8.39292C49.141 8.39292 50.3549 9.48766 50.3549 11.5859C50.3549 13.6841 49.141 14.7789 47.6573 14.7789Z" fill="black"/>
<mask id="mask0_5775_24627" style="mask-type:luminance" maskUnits="userSpaceOnUse" x="29" y="6" width="34" height="11">
<path d="M42.6217 10.1719C42.5768 7.75432 40.8683 6.47713 38.8001 6.47713C37.6761 6.47713 36.6421 6.84205 35.9227 7.61748C35.2033 6.84205 34.2142 6.47713 33.0452 6.47713C30.9771 6.47713 29.2686 7.75432 29.2236 10.1719V15.7368C29.2236 16.2385 29.6283 16.6491 30.1228 16.6491H31.022C31.112 16.6491 31.1569 16.5578 31.1569 16.5122V10.2175C31.2019 9.03152 32.0112 8.39292 33.0452 8.39292C34.0793 8.39292 34.9336 9.03152 34.9336 10.2175V15.7368C34.9336 16.2385 35.3382 16.6491 35.8328 16.6491H36.687C36.7769 16.6491 36.8219 16.5578 36.8219 16.5122V10.1719C36.8669 8.9859 37.6761 8.34731 38.7102 8.34731C39.7443 8.34731 40.5985 8.9859 40.5985 10.1719V15.6912C40.5985 16.1929 41.0032 16.6034 41.4977 16.6034H42.352C42.4419 16.6034 42.4869 16.5122 42.4869 16.4666L42.6217 10.1719ZM61.9096 6.61397H60.4709C60.0663 6.61397 59.7066 6.84204 59.4818 7.16134L57.8632 9.57889C57.6384 9.89819 57.1888 9.89819 56.964 9.57889L55.3455 7.16134C55.1207 6.84204 54.761 6.61397 54.3563 6.61397H52.9176C52.8277 6.61397 52.7827 6.7052 52.8277 6.79643L55.7051 11.1298C55.9299 11.4491 55.9299 11.8596 55.7051 12.1789L52.8277 16.5122C52.7827 16.6034 52.8277 16.6947 52.9176 16.6947H54.3563C54.761 16.6947 55.1207 16.4666 55.3455 16.1473L56.964 13.7298C57.1888 13.4105 57.6384 13.4105 57.8632 13.7298L59.4818 16.1473C59.7066 16.4666 60.0663 16.6947 60.4709 16.6947H61.9096C61.9996 16.6947 62.0445 16.6034 61.9996 16.5122L59.1221 12.2245C58.8973 11.9052 58.8973 11.4947 59.1221 11.1754L61.9996 6.84204C62.0445 6.75082 61.9996 6.61397 61.9096 6.61397ZM52.1533 6.61397H51.2991C50.8494 6.61397 50.4898 6.93327 50.3998 7.3438C49.6355 6.75082 48.6914 6.43152 47.6573 6.43152C45.1395 6.43152 43.1163 8.21047 43.1163 11.5403C43.1163 14.8701 45.1395 16.6491 47.6573 16.6491C48.6914 16.6491 49.6355 16.3754 50.3998 15.7824C50.4448 16.2385 50.8494 16.6034 51.2991 16.6034H52.1533C52.2432 16.6034 52.2882 16.5122 52.2882 16.4666V6.79643C52.2882 6.7052 52.2432 6.61397 52.1533 6.61397ZM47.6573 14.7789C46.1736 14.7789 44.9597 13.6841 44.9597 11.5859C44.9597 9.48766 46.1736 8.39292 47.6573 8.39292C49.141 8.39292 50.3549 9.48766 50.3549 11.5859C50.3549 13.6841 49.141 14.7789 47.6573 14.7789Z" fill="white"/>
</mask>
<g mask="url(#mask0_5775_24627)">
<path d="M37.1368 17.4245C40.3648 17.4245 42.9816 13.9732 42.9816 9.71573C42.9816 5.45829 40.3648 2.00696 37.1368 2.00696C33.9088 2.00696 31.292 5.45829 31.292 9.71573C31.292 13.9732 33.9088 17.4245 37.1368 17.4245Z" fill="black"/>
</g>
<path d="M42.6217 10.1719C42.5768 7.75432 40.8683 6.47713 38.8001 6.47713C37.6761 6.47713 36.6421 6.84205 35.9227 7.61748C35.2033 6.84205 34.2142 6.47713 33.0452 6.47713C30.9771 6.47713 29.2686 7.75432 29.2236 10.1719V15.7368C29.2236 16.2385 29.6283 16.6491 30.1228 16.6491H31.022C31.112 16.6491 31.1569 16.5578 31.1569 16.5122V10.2175C31.2019 9.03152 32.0112 8.39292 33.0452 8.39292C34.0793 8.39292 34.9336 9.03152 34.9336 10.2175V15.7368C34.9336 16.2385 35.3382 16.6491 35.8328 16.6491H36.687C36.7769 16.6491 36.8219 16.5578 36.8219 16.5122V10.1719C36.8669 8.9859 37.6761 8.34731 38.7102 8.34731C39.7443 8.34731 40.5985 8.9859 40.5985 10.1719V15.6912C40.5985 16.1929 41.0032 16.6034 41.4977 16.6034H42.352C42.4419 16.6034 42.4869 16.5122 42.4869 16.4666L42.6217 10.1719ZM61.9096 6.61397H60.4709C60.0663 6.61397 59.7066 6.84204 59.4818 7.16134L57.8632 9.57889C57.6384 9.89819 57.1888 9.89819 56.964 9.57889L55.3455 7.16134C55.1207 6.84204 54.761 6.61397 54.3563 6.61397H52.9176C52.8277 6.61397 52.7827 6.7052 52.8277 6.79643L55.7051 11.1298C55.9299 11.4491 55.9299 11.8596 55.7051 12.1789L52.8277 16.5122C52.7827 16.6034 52.8277 16.6947 52.9176 16.6947H54.3563C54.761 16.6947 55.1207 16.4666 55.3455 16.1473L56.964 13.7298C57.1888 13.4105 57.6384 13.4105 57.8632 13.7298L59.4818 16.1473C59.7066 16.4666 60.0663 16.6947 60.4709 16.6947H61.9096C61.9996 16.6947 62.0445 16.6034 61.9996 16.5122L59.1221 12.2245C58.8973 11.9052 58.8973 11.4947 59.1221 11.1754L61.9996 6.84204C62.0445 6.75082 61.9996 6.61397 61.9096 6.61397ZM52.1533 6.61397H51.2991C50.8494 6.61397 50.4898 6.93327 50.3998 7.3438C49.6355 6.75082 48.6914 6.43152 47.6573 6.43152C45.1395 6.43152 43.1163 8.21047 43.1163 11.5403C43.1163 14.8701 45.1395 16.6491 47.6573 16.6491C48.6914 16.6491 49.6355 16.3754 50.3998 15.7824C50.4448 16.2385 50.8494 16.6034 51.2991 16.6034H52.1533C52.2432 16.6034 52.2882 16.5122 52.2882 16.4666V6.79643C52.2882 6.7052 52.2432 6.61397 52.1533 6.61397ZM47.6573 14.7789C46.1736 14.7789 44.9597 13.6841 44.9597 11.5859C44.9597 9.48766 46.1736 8.39292 47.6573 8.39292C49.141 8.39292 50.3549 9.48766 50.3549 11.5859C50.3549 13.6841 49.141 14.7789 47.6573 14.7789Z" fill="black"/>
<path d="M42.6217 10.1719C42.5768 7.75432 40.8683 6.47713 38.8001 6.47713C37.6761 6.47713 36.6421 6.84205 35.9227 7.61748C35.2033 6.84205 34.2142 6.47713 33.0452 6.47713C30.9771 6.47713 29.2686 7.75432 29.2236 10.1719V15.7368C29.2236 16.2385 29.6283 16.6491 30.1228 16.6491H31.022C31.112 16.6491 31.1569 16.5578 31.1569 16.5122V10.2175C31.2019 9.03152 32.0112 8.39292 33.0452 8.39292C34.0793 8.39292 34.9336 9.03152 34.9336 10.2175V15.7368C34.9336 16.2385 35.3382 16.6491 35.8328 16.6491H36.687C36.7769 16.6491 36.8219 16.5578 36.8219 16.5122V10.1719C36.8669 8.9859 37.6761 8.34731 38.7102 8.34731C39.7443 8.34731 40.5985 8.9859 40.5985 10.1719V15.6912C40.5985 16.1929 41.0032 16.6034 41.4977 16.6034H42.352C42.4419 16.6034 42.4869 16.5122 42.4869 16.4666L42.6217 10.1719ZM61.9096 6.61397H60.4709C60.0663 6.61397 59.7066 6.84204 59.4818 7.16134L57.8632 9.57889C57.6384 9.89819 57.1888 9.89819 56.964 9.57889L55.3455 7.16134C55.1207 6.84204 54.761 6.61397 54.3563 6.61397H52.9176C52.8277 6.61397 52.7827 6.7052 52.8277 6.79643L55.7051 11.1298C55.9299 11.4491 55.9299 11.8596 55.7051 12.1789L52.8277 16.5122C52.7827 16.6034 52.8277 16.6947 52.9176 16.6947H54.3563C54.761 16.6947 55.1207 16.4666 55.3455 16.1473L56.964 13.7298C57.1888 13.4105 57.6384 13.4105 57.8632 13.7298L59.4818 16.1473C59.7066 16.4666 60.0663 16.6947 60.4709 16.6947H61.9096C61.9996 16.6947 62.0445 16.6034 61.9996 16.5122L59.1221 12.2245C58.8973 11.9052 58.8973 11.4947 59.1221 11.1754L61.9996 6.84204C62.0445 6.75082 61.9996 6.61397 61.9096 6.61397ZM52.1533 6.61397H51.2991C50.8494 6.61397 50.4898 6.93327 50.3998 7.3438C49.6355 6.75082 48.6914 6.43152 47.6573 6.43152C45.1395 6.43152 43.1163 8.21047 43.1163 11.5403C43.1163 14.8701 45.1395 16.6491 47.6573 16.6491C48.6914 16.6491 49.6355 16.3754 50.3998 15.7824C50.4448 16.2385 50.8494 16.6034 51.2991 16.6034H52.1533C52.2432 16.6034 52.2882 16.5122 52.2882 16.4666V6.79643C52.2882 6.7052 52.2432 6.61397 52.1533 6.61397ZM47.6573 14.7789C46.1736 14.7789 44.9597 13.6841 44.9597 11.5859C44.9597 9.48766 46.1736 8.39292 47.6573 8.39292C49.141 8.39292 50.3549 9.48766 50.3549 11.5859C50.3549 13.6841 49.141 14.7789 47.6573 14.7789Z" fill="black"/>
<mask id="mask1_5775_24627" style="mask-type:luminance" maskUnits="userSpaceOnUse" x="29" y="6" width="34" height="11">
<path d="M42.6217 10.1719C42.5768 7.75432 40.8683 6.47713 38.8001 6.47713C37.6761 6.47713 36.6421 6.84205 35.9227 7.61748C35.2033 6.84205 34.2142 6.47713 33.0452 6.47713C30.9771 6.47713 29.2686 7.75432 29.2236 10.1719V15.7368C29.2236 16.2385 29.6283 16.6491 30.1228 16.6491H31.022C31.112 16.6491 31.1569 16.5578 31.1569 16.5122V10.2175C31.2019 9.03152 32.0112 8.39292 33.0452 8.39292C34.0793 8.39292 34.9336 9.03152 34.9336 10.2175V15.7368C34.9336 16.2385 35.3382 16.6491 35.8328 16.6491H36.687C36.7769 16.6491 36.8219 16.5578 36.8219 16.5122V10.1719C36.8669 8.9859 37.6761 8.34731 38.7102 8.34731C39.7443 8.34731 40.5985 8.9859 40.5985 10.1719V15.6912C40.5985 16.1929 41.0032 16.6034 41.4977 16.6034H42.352C42.4419 16.6034 42.4869 16.5122 42.4869 16.4666L42.6217 10.1719ZM61.9096 6.61397H60.4709C60.0663 6.61397 59.7066 6.84204 59.4818 7.16134L57.8632 9.57889C57.6384 9.89819 57.1888 9.89819 56.964 9.57889L55.3455 7.16134C55.1207 6.84204 54.761 6.61397 54.3563 6.61397H52.9176C52.8277 6.61397 52.7827 6.7052 52.8277 6.79643L55.7051 11.1298C55.9299 11.4491 55.9299 11.8596 55.7051 12.1789L52.8277 16.5122C52.7827 16.6034 52.8277 16.6947 52.9176 16.6947H54.3563C54.761 16.6947 55.1207 16.4666 55.3455 16.1473L56.964 13.7298C57.1888 13.4105 57.6384 13.4105 57.8632 13.7298L59.4818 16.1473C59.7066 16.4666 60.0663 16.6947 60.4709 16.6947H61.9096C61.9996 16.6947 62.0445 16.6034 61.9996 16.5122L59.1221 12.2245C58.8973 11.9052 58.8973 11.4947 59.1221 11.1754L61.9996 6.84204C62.0445 6.75082 61.9996 6.61397 61.9096 6.61397ZM52.1533 6.61397H51.2991C50.8494 6.61397 50.4898 6.93327 50.3998 7.3438C49.6355 6.75082 48.6914 6.43152 47.6573 6.43152C45.1395 6.43152 43.1163 8.21047 43.1163 11.5403C43.1163 14.8701 45.1395 16.6491 47.6573 16.6491C48.6914 16.6491 49.6355 16.3754 50.3998 15.7824C50.4448 16.2385 50.8494 16.6034 51.2991 16.6034H52.1533C52.2432 16.6034 52.2882 16.5122 52.2882 16.4666V6.79643C52.2882 6.7052 52.2432 6.61397 52.1533 6.61397ZM47.6573 14.7789C46.1736 14.7789 44.9597 13.6841 44.9597 11.5859C44.9597 9.48766 46.1736 8.39292 47.6573 8.39292C49.141 8.39292 50.3549 9.48766 50.3549 11.5859C50.3549 13.6841 49.141 14.7789 47.6573 14.7789Z" fill="white"/>
</mask>
<g mask="url(#mask1_5775_24627)">
<path d="M42.981 24.8139C49.6356 24.8139 55.0303 20.9337 55.0303 16.1473C55.0303 11.3608 49.6356 7.48059 42.981 7.48059C36.3263 7.48059 30.9316 11.3608 30.9316 16.1473C30.9316 20.9337 36.3263 24.8139 42.981 24.8139Z" fill="black"/>
</g>
<path d="M42.6217 10.1719C42.5768 7.75432 40.8683 6.47713 38.8001 6.47713C37.6761 6.47713 36.6421 6.84205 35.9227 7.61748C35.2033 6.84205 34.2142 6.47713 33.0452 6.47713C30.9771 6.47713 29.2686 7.75432 29.2236 10.1719V15.7368C29.2236 16.2385 29.6283 16.6491 30.1228 16.6491H31.022C31.112 16.6491 31.1569 16.5578 31.1569 16.5122V10.2175C31.2019 9.03152 32.0112 8.39292 33.0452 8.39292C34.0793 8.39292 34.9336 9.03152 34.9336 10.2175V15.7368C34.9336 16.2385 35.3382 16.6491 35.8328 16.6491H36.687C36.7769 16.6491 36.8219 16.5578 36.8219 16.5122V10.1719C36.8669 8.9859 37.6761 8.34731 38.7102 8.34731C39.7443 8.34731 40.5985 8.9859 40.5985 10.1719V15.6912C40.5985 16.1929 41.0032 16.6034 41.4977 16.6034H42.352C42.4419 16.6034 42.4869 16.5122 42.4869 16.4666L42.6217 10.1719ZM61.9096 6.61397H60.4709C60.0663 6.61397 59.7066 6.84204 59.4818 7.16134L57.8632 9.57889C57.6384 9.89819 57.1888 9.89819 56.964 9.57889L55.3455 7.16134C55.1207 6.84204 54.761 6.61397 54.3563 6.61397H52.9176C52.8277 6.61397 52.7827 6.7052 52.8277 6.79643L55.7051 11.1298C55.9299 11.4491 55.9299 11.8596 55.7051 12.1789L52.8277 16.5122C52.7827 16.6034 52.8277 16.6947 52.9176 16.6947H54.3563C54.761 16.6947 55.1207 16.4666 55.3455 16.1473L56.964 13.7298C57.1888 13.4105 57.6384 13.4105 57.8632 13.7298L59.4818 16.1473C59.7066 16.4666 60.0663 16.6947 60.4709 16.6947H61.9096C61.9996 16.6947 62.0445 16.6034 61.9996 16.5122L59.1221 12.2245C58.8973 11.9052 58.8973 11.4947 59.1221 11.1754L61.9996 6.84204C62.0445 6.75082 61.9996 6.61397 61.9096 6.61397ZM52.1533 6.61397H51.2991C50.8494 6.61397 50.4898 6.93327 50.3998 7.3438C49.6355 6.75082 48.6914 6.43152 47.6573 6.43152C45.1395 6.43152 43.1163 8.21047 43.1163 11.5403C43.1163 14.8701 45.1395 16.6491 47.6573 16.6491C48.6914 16.6491 49.6355 16.3754 50.3998 15.7824C50.4448 16.2385 50.8494 16.6034 51.2991 16.6034H52.1533C52.2432 16.6034 52.2882 16.5122 52.2882 16.4666V6.79643C52.2882 6.7052 52.2432 6.61397 52.1533 6.61397ZM47.6573 14.7789C46.1736 14.7789 44.9597 13.6841 44.9597 11.5859C44.9597 9.48766 46.1736 8.39292 47.6573 8.39292C49.141 8.39292 50.3549 9.48766 50.3549 11.5859C50.3549 13.6841 49.141 14.7789 47.6573 14.7789Z" fill="black"/>
<path d="M42.6217 10.1719C42.5768 7.75432 40.8683 6.47713 38.8001 6.47713C37.6761 6.47713 36.6421 6.84205 35.9227 7.61748C35.2033 6.84205 34.2142 6.47713 33.0452 6.47713C30.9771 6.47713 29.2686 7.75432 29.2236 10.1719V15.7368C29.2236 16.2385 29.6283 16.6491 30.1228 16.6491H31.022C31.112 16.6491 31.1569 16.5578 31.1569 16.5122V10.2175C31.2019 9.03152 32.0112 8.39292 33.0452 8.39292C34.0793 8.39292 34.9336 9.03152 34.9336 10.2175V15.7368C34.9336 16.2385 35.3382 16.6491 35.8328 16.6491H36.687C36.7769 16.6491 36.8219 16.5578 36.8219 16.5122V10.1719C36.8669 8.9859 37.6761 8.34731 38.7102 8.34731C39.7443 8.34731 40.5985 8.9859 40.5985 10.1719V15.6912C40.5985 16.1929 41.0032 16.6034 41.4977 16.6034H42.352C42.4419 16.6034 42.4869 16.5122 42.4869 16.4666L42.6217 10.1719ZM61.9096 6.61397H60.4709C60.0663 6.61397 59.7066 6.84204 59.4818 7.16134L57.8632 9.57889C57.6384 9.89819 57.1888 9.89819 56.964 9.57889L55.3455 7.16134C55.1207 6.84204 54.761 6.61397 54.3563 6.61397H52.9176C52.8277 6.61397 52.7827 6.7052 52.8277 6.79643L55.7051 11.1298C55.9299 11.4491 55.9299 11.8596 55.7051 12.1789L52.8277 16.5122C52.7827 16.6034 52.8277 16.6947 52.9176 16.6947H54.3563C54.761 16.6947 55.1207 16.4666 55.3455 16.1473L56.964 13.7298C57.1888 13.4105 57.6384 13.4105 57.8632 13.7298L59.4818 16.1473C59.7066 16.4666 60.0663 16.6947 60.4709 16.6947H61.9096C61.9996 16.6947 62.0445 16.6034 61.9996 16.5122L59.1221 12.2245C58.8973 11.9052 58.8973 11.4947 59.1221 11.1754L61.9996 6.84204C62.0445 6.75082 61.9996 6.61397 61.9096 6.61397ZM52.1533 6.61397H51.2991C50.8494 6.61397 50.4898 6.93327 50.3998 7.3438C49.6355 6.75082 48.6914 6.43152 47.6573 6.43152C45.1395 6.43152 43.1163 8.21047 43.1163 11.5403C43.1163 14.8701 45.1395 16.6491 47.6573 16.6491C48.6914 16.6491 49.6355 16.3754 50.3998 15.7824C50.4448 16.2385 50.8494 16.6034 51.2991 16.6034H52.1533C52.2432 16.6034 52.2882 16.5122 52.2882 16.4666V6.79643C52.2882 6.7052 52.2432 6.61397 52.1533 6.61397ZM47.6573 14.7789C46.1736 14.7789 44.9597 13.6841 44.9597 11.5859C44.9597 9.48766 46.1736 8.39292 47.6573 8.39292C49.141 8.39292 50.3549 9.48766 50.3549 11.5859C50.3549 13.6841 49.141 14.7789 47.6573 14.7789Z" fill="black"/>
<mask id="mask2_5775_24627" style="mask-type:luminance" maskUnits="userSpaceOnUse" x="29" y="6" width="34" height="11">
<path d="M42.6217 10.1719C42.5768 7.75432 40.8683 6.47713 38.8001 6.47713C37.6761 6.47713 36.6421 6.84205 35.9227 7.61748C35.2033 6.84205 34.2142 6.47713 33.0452 6.47713C30.9771 6.47713 29.2686 7.75432 29.2236 10.1719V15.7368C29.2236 16.2385 29.6283 16.6491 30.1228 16.6491H31.022C31.112 16.6491 31.1569 16.5578 31.1569 16.5122V10.2175C31.2019 9.03152 32.0112 8.39292 33.0452 8.39292C34.0793 8.39292 34.9336 9.03152 34.9336 10.2175V15.7368C34.9336 16.2385 35.3382 16.6491 35.8328 16.6491H36.687C36.7769 16.6491 36.8219 16.5578 36.8219 16.5122V10.1719C36.8669 8.9859 37.6761 8.34731 38.7102 8.34731C39.7443 8.34731 40.5985 8.9859 40.5985 10.1719V15.6912C40.5985 16.1929 41.0032 16.6034 41.4977 16.6034H42.352C42.4419 16.6034 42.4869 16.5122 42.4869 16.4666L42.6217 10.1719ZM61.9096 6.61397H60.4709C60.0663 6.61397 59.7066 6.84204 59.4818 7.16134L57.8632 9.57889C57.6384 9.89819 57.1888 9.89819 56.964 9.57889L55.3455 7.16134C55.1207 6.84204 54.761 6.61397 54.3563 6.61397H52.9176C52.8277 6.61397 52.7827 6.7052 52.8277 6.79643L55.7051 11.1298C55.9299 11.4491 55.9299 11.8596 55.7051 12.1789L52.8277 16.5122C52.7827 16.6034 52.8277 16.6947 52.9176 16.6947H54.3563C54.761 16.6947 55.1207 16.4666 55.3455 16.1473L56.964 13.7298C57.1888 13.4105 57.6384 13.4105 57.8632 13.7298L59.4818 16.1473C59.7066 16.4666 60.0663 16.6947 60.4709 16.6947H61.9096C61.9996 16.6947 62.0445 16.6034 61.9996 16.5122L59.1221 12.2245C58.8973 11.9052 58.8973 11.4947 59.1221 11.1754L61.9996 6.84204C62.0445 6.75082 61.9996 6.61397 61.9096 6.61397ZM52.1533 6.61397H51.2991C50.8494 6.61397 50.4898 6.93327 50.3998 7.3438C49.6355 6.75082 48.6914 6.43152 47.6573 6.43152C45.1395 6.43152 43.1163 8.21047 43.1163 11.5403C43.1163 14.8701 45.1395 16.6491 47.6573 16.6491C48.6914 16.6491 49.6355 16.3754 50.3998 15.7824C50.4448 16.2385 50.8494 16.6034 51.2991 16.6034H52.1533C52.2432 16.6034 52.2882 16.5122 52.2882 16.4666V6.79643C52.2882 6.7052 52.2432 6.61397 52.1533 6.61397ZM47.6573 14.7789C46.1736 14.7789 44.9597 13.6841 44.9597 11.5859C44.9597 9.48766 46.1736 8.39292 47.6573 8.39292C49.141 8.39292 50.3549 9.48766 50.3549 11.5859C50.3549 13.6841 49.141 14.7789 47.6573 14.7789Z" fill="white"/>
</mask>
<g mask="url(#mask2_5775_24627)">
<path d="M50.3552 13.6842C53.9805 13.6842 56.9194 10.7025 56.9194 7.02452C56.9194 3.34649 53.9805 0.364868 50.3552 0.364868C46.7299 0.364868 43.791 3.34649 43.791 7.02452C43.791 10.7025 46.7299 13.6842 50.3552 13.6842Z" fill="black"/>
</g>
</g>
<defs>
<clipPath id="clip0_5775_24627">
<rect width="62" height="26" fill="white"/>
</clipPath>
</defs>
</svg>
