<svg width="106" height="13" viewBox="0 0 106 13" fill="none" xmlns="http://www.w3.org/2000/svg">
<path d="M36.4902 12.8284V0.786987H41.5638C42.4826 0.786987 43.2781 0.962816 43.9474 1.31306C44.6167 1.6633 45.1342 2.1525 45.4972 2.77783C45.8616 3.40315 46.0431 4.12916 46.0431 4.95584C46.0431 5.78252 45.8574 6.51277 45.4859 7.13385C45.1144 7.75492 44.5869 8.23561 43.9062 8.57734C43.2242 8.91766 42.4145 9.08923 41.4744 9.08923H39.4595V12.8284H36.4902ZM39.4595 6.79495H40.9228C41.5907 6.79495 42.0983 6.62763 42.4457 6.29157C42.7931 5.95693 42.9676 5.51026 42.9676 4.95442C42.9676 4.39857 42.7931 3.94907 42.4457 3.62294C42.0983 3.29539 41.5907 3.13232 40.9228 3.13232H39.4595V6.79495Z" fill="#090D18"/>
<path d="M46.8252 12.8284V3.79731H49.6739V5.44358H49.7703C49.9377 4.84803 50.2113 4.40421 50.5913 4.1121C50.9714 3.82 51.4123 3.67395 51.9171 3.67395C52.161 3.67395 52.3936 3.70373 52.6134 3.76186C52.8332 3.82142 53.0317 3.90083 53.2075 4.00292L52.344 6.36669C52.2163 6.30855 52.0788 6.25608 51.9327 6.21071C51.7867 6.16533 51.625 6.14265 51.4492 6.14265C50.9898 6.14265 50.5942 6.30571 50.2624 6.63043C49.9306 6.95656 49.7618 7.38763 49.759 7.92362V12.827H46.8266L46.8252 12.8284Z" fill="#090D18"/>
<path d="M57.4744 12.9999C56.0266 12.9999 54.888 12.5859 54.0585 11.7592C53.2289 10.9325 52.8135 9.79529 52.8135 8.34896C52.8135 7.41593 53.0007 6.59918 53.3778 5.90012C53.7536 5.19964 54.2839 4.65513 54.9674 4.26519C55.6508 3.87525 56.4563 3.67957 57.385 3.67957C58.2571 3.67957 59.0285 3.85681 59.7006 4.21131C60.3727 4.5658 60.8974 5.0862 61.2774 5.7725C61.6574 6.4588 61.8474 7.29824 61.8474 8.2894V9.0069H55.7061V9.08347C55.7061 9.63648 55.8692 10.0817 56.1953 10.4178C56.5215 10.7553 56.9653 10.924 57.5297 10.924C57.9139 10.924 58.2472 10.8446 58.5308 10.6858C58.8143 10.527 59.0129 10.2987 59.1249 10.0009L61.8176 10.0775C61.6503 10.9637 61.1852 11.6727 60.4266 12.203C59.6666 12.7348 58.6839 12.9999 57.4758 12.9999H57.4744ZM55.7047 7.33794H59.1178C59.1135 6.87568 58.9547 6.49567 58.6414 6.19931C58.328 5.90295 57.9281 5.75548 57.4446 5.75548C56.9611 5.75548 56.5498 5.90579 56.2237 6.20782C55.8976 6.50985 55.7246 6.88561 55.7047 7.33652V7.33794Z" fill="#090D18"/>
<path d="M62.6758 12.8283V3.79726H65.4649V5.45487H65.567C65.7585 4.90611 66.0832 4.47363 66.5412 4.15601C66.9992 3.83838 67.5423 3.67957 68.169 3.67957C68.7958 3.67957 69.3559 3.8398 69.8125 4.16168C70.2676 4.48356 70.5583 4.91462 70.6817 5.45487H70.7781C70.9497 4.91746 71.2857 4.48781 71.7863 4.16451C72.2868 3.84121 72.8753 3.67957 73.5559 3.67957C74.428 3.67957 75.1355 3.95182 75.6786 4.49774C76.2231 5.04224 76.494 5.79377 76.494 6.74948V12.8298H73.5616V7.40884C73.5616 6.95792 73.4425 6.61477 73.2043 6.37655C72.966 6.13975 72.6612 6.02064 72.2897 6.02064C71.8855 6.02064 71.5693 6.14968 71.3396 6.40633C71.1099 6.66299 70.995 7.00755 70.995 7.43862V12.8312H68.1761V7.38048C68.1761 6.96076 68.0598 6.63037 67.8287 6.38648C67.5962 6.14401 67.2913 6.02206 66.9113 6.02206C66.5313 6.02206 66.215 6.15393 65.9726 6.41909C65.7301 6.68426 65.6096 7.04017 65.6096 7.48683V12.8312H62.6772L62.6758 12.8283Z" fill="#090D18"/>
<path d="M79.1104 2.7452C78.6992 2.7452 78.3447 2.61049 78.0483 2.3425C77.752 2.0745 77.6045 1.74978 77.6045 1.36976C77.6045 0.989747 77.752 0.666449 78.0483 0.399869C78.3447 0.13329 78.6978 0 79.1104 0C79.523 0 79.8818 0.13329 80.1753 0.399869C80.4688 0.666449 80.6163 0.989747 80.6163 1.36976C80.6163 1.74978 80.4688 2.0745 80.1753 2.3425C79.8818 2.61049 79.5273 2.7452 79.1104 2.7452ZM77.6414 12.8298V3.79734H80.5737V12.8284H77.6414V12.8298Z" fill="#090D18"/>
<path d="M87.7015 8.93044V3.79736H90.6282V12.8285H87.8334V11.1467H87.737C87.5328 11.6997 87.1868 12.1379 86.6962 12.4612C86.2056 12.7845 85.6157 12.9461 84.9237 12.9461C84.2927 12.9461 83.7397 12.8058 83.2661 12.5222C82.7925 12.24 82.4238 11.8444 82.1601 11.3339C81.8963 10.8249 81.7616 10.2307 81.7588 9.55151V3.79736H84.6912V8.98999C84.6954 9.48061 84.8273 9.8663 85.0868 10.1485C85.3463 10.4307 85.7008 10.5725 86.1488 10.5725C86.5969 10.5725 86.9528 10.4307 87.252 10.1456C87.5526 9.86204 87.7015 9.4565 87.7015 8.93185V8.93044Z" fill="#090D18"/>
<path d="M91.8184 12.8283V3.79726H94.6075V5.45487H94.7096C94.901 4.90611 95.2258 4.47363 95.6838 4.15601C96.1418 3.83838 96.6849 3.67957 97.3116 3.67957C97.9383 3.67957 98.4984 3.8398 98.955 4.16168C99.4102 4.48356 99.7009 4.91462 99.8242 5.45487H99.9207C100.092 4.91746 100.428 4.48781 100.929 4.16451C101.429 3.84121 102.018 3.67957 102.698 3.67957C103.571 3.67957 104.278 3.95182 104.821 4.49774C105.364 5.04366 105.637 5.79377 105.637 6.74948V12.8298H102.704V7.40884C102.704 6.95792 102.585 6.61477 102.347 6.37655C102.109 6.13834 101.804 6.02064 101.432 6.02064C101.028 6.02064 100.712 6.14968 100.482 6.40633C100.252 6.66299 100.138 7.00755 100.138 7.43862V12.8312H97.3187V7.38048C97.3187 6.96076 97.2024 6.63037 96.9713 6.38648C96.7387 6.14401 96.4339 6.02206 96.0539 6.02206C95.6738 6.02206 95.3576 6.15393 95.1152 6.41909C94.8727 6.68426 94.7522 7.04017 94.7522 7.48683V12.8312H91.8198L91.8184 12.8283Z" fill="#090D18"/>
<path d="M18.4315 12.4854C18.4315 12.691 18.294 12.8285 18.087 12.8285H14.4073C14.2003 12.8285 14.0628 12.691 14.0628 12.4854V6.79362C14.0628 6.58659 14.2003 6.44905 14.4073 6.44905H18.087C18.294 6.44905 18.4315 6.58659 18.4315 6.79362V12.4854ZM13.8047 3.06151C13.8047 1.7201 14.905 0.619751 16.2464 0.619751C17.5878 0.619751 18.6882 1.7201 18.6882 3.06151C18.6882 4.40291 17.5878 5.50326 16.2464 5.50326C14.905 5.50326 13.8047 4.40291 13.8047 3.06151Z" fill="url(#paint0_linear_5775_24664)"/>
<path d="M3.96797 0.79126C4.19201 0.79126 4.34657 0.911788 4.39762 1.11739L6.61675 9.07933L8.85148 1.11739C8.90253 0.91037 9.05851 0.79126 9.28113 0.79126H12.8927C13.0643 0.79126 13.1848 0.962835 13.1338 1.11739L9.57323 12.5023C9.50375 12.7264 9.34919 12.8285 9.12657 12.8285H4.03745C3.81341 12.8285 3.65886 12.7249 3.59079 12.5023L0.0118223 1.11739C-0.0392249 0.962835 0.0813031 0.79126 0.252878 0.79126H3.96797Z" fill="url(#paint1_linear_5775_24664)"/>
<path d="M19.6872 12.3986L23.1612 6.80898L19.6872 1.21932C19.5667 1.01229 19.6702 0.789673 19.9112 0.789673H23.8489C24.124 0.789673 24.2786 0.876169 24.3991 1.08178L26.3077 4.41827L28.2163 1.08178C28.3368 0.874751 28.4914 0.789673 28.7665 0.789673H32.6191C32.8602 0.789673 32.9637 1.01371 32.8432 1.21932L29.3691 6.80898L32.8432 12.3986C32.9637 12.6057 32.8602 12.8283 32.6191 12.8283H28.6814C28.4063 12.8283 28.2518 12.7418 28.1312 12.5362L26.2226 9.19969L24.314 12.5362C24.1935 12.7418 24.0389 12.8283 23.7639 12.8283H19.9112C19.6702 12.8283 19.5667 12.6042 19.6872 12.3986Z" fill="url(#paint2_linear_5775_24664)"/>
<defs>
<linearGradient id="paint0_linear_5775_24664" x1="8.98215" y1="-15.1836" x2="19.0342" y2="15.8091" gradientUnits="userSpaceOnUse">
<stop offset="0.53" stop-color="#FF5900"/>
<stop offset="0.68" stop-color="#FE5502"/>
<stop offset="0.81" stop-color="#FB490A"/>
<stop offset="0.95" stop-color="#F73617"/>
<stop offset="1" stop-color="#F52D1F"/>
</linearGradient>
<linearGradient id="paint1_linear_5775_24664" x1="3.24764" y1="-13.2098" x2="10.6523" y2="18.5202" gradientUnits="userSpaceOnUse">
<stop offset="0.53" stop-color="#FF5900"/>
<stop offset="0.68" stop-color="#FE5502"/>
<stop offset="0.81" stop-color="#FB490A"/>
<stop offset="0.95" stop-color="#F73617"/>
<stop offset="1" stop-color="#F52D1F"/>
</linearGradient>
<linearGradient id="paint2_linear_5775_24664" x1="18.1671" y1="-18.1616" x2="28.2177" y2="12.8311" gradientUnits="userSpaceOnUse">
<stop offset="0.53" stop-color="#FF5900"/>
<stop offset="0.68" stop-color="#FE5502"/>
<stop offset="0.81" stop-color="#FB490A"/>
<stop offset="0.95" stop-color="#F73617"/>
<stop offset="1" stop-color="#F52D1F"/>
</linearGradient>
</defs>
</svg>
