<svg width="20" height="14" viewBox="0 0 20 14" fill="none" xmlns="http://www.w3.org/2000/svg">
<path d="M4.06424 0C2.09648 0 0.5 1.56771 0.5 3.5V10.5C0.5 12.4323 2.09648 14 4.06424 14H7.18295C7.40572 14 7.62848 13.8177 7.62848 13.5625V12.6875C7.62848 12.4688 7.40572 12.25 7.18295 12.25H4.06424C3.0618 12.25 2.28212 11.4844 2.28212 10.5V3.5C2.28212 2.55208 3.0618 1.75 4.06424 1.75H7.18295C7.40572 1.75 7.62848 1.56771 7.62848 1.3125V0.4375C7.62848 0.21875 7.40572 0 7.18295 0H4.06424ZM12.6407 0.729167L11.8981 1.45833C11.7125 1.60417 11.7125 1.89583 11.8981 2.07812L16.0936 6.05208H6.88593C6.62604 6.05208 6.4404 6.27083 6.4404 6.48958V7.51042C6.4404 7.76562 6.62604 7.94792 6.88593 7.94792H16.0936L11.8981 11.9583C11.7125 12.1406 11.7125 12.4323 11.8981 12.5781L12.6407 13.3073C12.7892 13.4896 13.0862 13.4896 13.2719 13.3073L19.3608 7.32812C19.5464 7.14583 19.5464 6.89062 19.3608 6.70833L13.2719 0.729167C13.0862 0.546875 12.7892 0.546875 12.6407 0.729167Z" fill="#000FBE"/>
</svg>
