<svg width="100" height="100" viewBox="0 0 100 100" fill="none" xmlns="http://www.w3.org/2000/svg">
<circle cx="50" cy="50" r="50" fill="white"/>
<path d="M0 50C0 71.3458 13.3792 89.5708 32.2083 96.7417C31.75 92.8375 31.2625 86.4 32.3125 81.8833C33.2167 78 38.15 57.1417 38.15 57.1417C38.15 57.1417 36.6625 54.1625 36.6625 49.75C36.6625 42.8333 40.6708 37.6667 45.6667 37.6667C49.9167 37.6667 51.9667 40.8542 51.9667 44.675C51.9667 48.9458 49.2458 55.3292 47.8417 61.25C46.6708 66.2042 50.3292 70.2458 55.2125 70.2458C64.0583 70.2458 70.8625 60.9167 70.8625 47.45C70.8625 35.5292 62.2958 27.2 50.0667 27.2C35.9083 27.2 27.5958 37.8208 27.5958 48.8C27.5958 53.0792 29.2417 57.6625 31.3 60.1583C31.4755 60.3468 31.5995 60.5773 31.66 60.8276C31.7206 61.0779 31.7157 61.3396 31.6458 61.5875C31.2667 63.1625 30.425 66.5417 30.2625 67.2333C30.0417 68.1417 29.5417 68.3375 28.5958 67.8958C22.3792 65.0042 18.4958 55.9167 18.4958 48.6167C18.4958 32.9125 29.9 18.4958 51.3792 18.4958C68.6458 18.4958 82.0667 30.8 82.0667 47.2417C82.0667 64.3958 71.2542 78.2042 56.2375 78.2042C51.1917 78.2042 46.4542 75.5792 44.8292 72.4833C44.8292 72.4833 42.3333 81.9917 41.7292 84.3167C40.5542 88.8333 37.2958 94.55 35.275 97.7958C39.9333 99.2292 44.875 100 50 100C77.6125 100 100 77.6125 100 50C100 22.3875 77.6125 0 50 0C22.3875 0 0 22.3875 0 50Z" fill="#BD081C"/>
</svg>
