<svg width="100" height="100" viewBox="0 0 100 100" fill="none" xmlns="http://www.w3.org/2000/svg">
<circle cx="50" cy="50" r="50" fill="#010101"/>
<path d="M64.254 40.9072C68.7092 44.0904 74.1672 45.9633 80.062 45.9633V34.626C78.9463 34.6263 77.8337 34.5099 76.7422 34.2787V43.2028C70.8479 43.2028 65.3905 41.3301 60.9343 38.1472V61.2836C60.9343 72.8578 51.5468 82.2396 39.9676 82.2396C35.6471 82.2396 31.6312 80.9341 28.2954 78.695C32.1028 82.5862 37.4125 84.9999 43.2865 84.9999C54.8666 84.9999 64.2544 75.618 64.2544 64.0434V40.9072H64.254ZM68.3495 29.4693C66.0725 26.9831 64.5774 23.7701 64.254 20.2179V18.7598H61.108C61.8999 23.2744 64.601 27.1314 68.3493 29.4693H68.3495ZM35.6192 69.8136C34.3471 68.1467 33.6595 66.1071 33.6626 64.0102C33.6626 58.7168 37.9563 54.4247 43.2538 54.4247C44.2409 54.4242 45.2222 54.5757 46.1632 54.8738V43.283C45.0635 43.1325 43.9539 43.0683 42.8447 43.0919V52.1136C41.9033 51.8152 40.9215 51.6638 39.934 51.6647C34.6367 51.6647 30.3432 55.9563 30.3432 61.2504C30.3432 64.9939 32.4892 68.2348 35.6192 69.8136Z" fill="#FF004F"/>
<path d="M60.9341 38.147C65.3906 41.3299 70.8474 43.2026 76.742 43.2026V34.2785C73.4517 33.5779 70.539 31.8596 68.3491 29.4693C64.6006 27.1312 61.8997 23.2742 61.1078 18.7598H52.8444V64.0429C52.8256 69.322 48.5392 73.5965 43.2532 73.5965C40.1384 73.5965 37.371 72.1126 35.6185 69.8134C32.489 68.2348 30.3428 64.9937 30.3428 61.2507C30.3428 55.957 34.6363 51.6649 39.9335 51.6649C40.9485 51.6649 41.9267 51.8228 42.8443 52.1138V43.0922C31.4684 43.3271 22.3196 52.6173 22.3196 64.0431C22.3196 69.7469 24.5978 74.9175 28.2955 78.6955C31.6313 80.9341 35.6469 82.2401 39.9677 82.2401C51.5471 82.2401 60.9344 72.8575 60.9344 61.2836L60.9341 38.147Z" fill="white"/>
<path d="M76.742 34.2785V31.866C73.7749 31.8705 70.8665 31.04 68.3491 29.4695C70.5774 31.9078 73.5117 33.5892 76.742 34.279V34.2785ZM61.1076 18.7598C61.0321 18.3284 60.9742 17.8942 60.9339 17.4581V16H49.5241V61.2836C49.506 66.5623 45.2196 70.8367 39.9333 70.8367C38.4347 70.8389 36.9566 70.4886 35.6183 69.8141C37.3708 72.1128 40.1382 73.5965 43.253 73.5965C48.5388 73.5965 52.8256 69.3225 52.8442 64.0434V18.76H61.1076V18.7598ZM42.8448 43.0922V40.5234C41.8914 40.3931 40.9302 40.3279 39.9679 40.3283C28.3873 40.3283 19 49.7106 19 61.2836C19 68.5394 22.6893 74.9339 28.2957 78.6953C24.598 74.9175 22.3199 69.7466 22.3199 64.0432C22.3199 52.6176 31.4684 43.3274 42.8448 43.0924V43.0922Z" fill="#00F2EA"/>
</svg>
