<svg width="100" height="100" viewBox="0 0 100 100" fill="none" xmlns="http://www.w3.org/2000/svg">
<circle cx="50" cy="50" r="50" fill="#33CCFF"/>
<path d="M23.3944 55.9502L17.4443 59.1003V59.8003L18.8444 64.3503L22.3444 68.5504L27.9445 72.0504L32.4945 74.5004L34.5945 70.3004L39.1446 69.6004L43.6946 72.0504L46.4947 76.6005L56.6448 75.9005L66.4449 73.4504L73.795 67.5004L80.095 59.8003L82.5451 50.7002V42.3001L80.095 33.2L73.795 25.4999L67.8449 20.9498L59.4448 17.7998H51.7447L43.6946 18.8498L36.3445 23.0499L28.9945 29.6999L24.7944 39.15L24.0944 48.6001L23.3944 55.9502Z" fill="white"/>
<path d="M53.5472 15C43.9134 15 34.93 19.3459 28.7699 27.0985C24.3511 32.6781 22.0323 39.5586 22.0323 46.6579V51.73C22.0323 54.3375 20.224 56.7992 16.6014 57.018C15.7322 57.0909 15.006 57.6713 15.006 58.5405C14.8601 60.9322 17.3977 65.2781 20.8744 68.7548C23.2661 71.2165 26.0894 73.1736 29.1345 74.6932C28.9092 75.9531 28.9631 77.2472 29.2923 78.484C29.6216 79.7209 30.2182 80.8705 31.04 81.8517C31.8619 82.8329 32.889 83.6219 34.0489 84.1629C35.2089 84.704 36.4734 84.9841 37.7533 84.9833C39.7648 84.9985 41.7187 84.3123 43.2789 83.0427C44.8391 81.7731 45.9082 79.9995 46.3022 78.0269H53.6202C54.5623 82.9532 59.7044 86.357 65.2111 84.4729C69.9945 82.8803 72.0945 77.4465 70.3533 73.0277C72.2671 71.7703 74.0616 70.34 75.7142 68.7548C78.6618 65.8359 80.9997 62.3602 82.592 58.5296C84.1843 54.6991 84.9992 50.5903 84.9893 46.442C84.9893 38.0361 81.7284 30.1406 75.7871 24.2022C69.8664 18.3385 61.8801 15.034 53.5472 15ZM53.5472 18.5496C61.0082 18.5496 68.0345 21.4488 73.3225 26.7368C75.9269 29.3279 77.9915 32.4099 79.3968 35.8043C80.8022 39.1988 81.5203 42.8382 81.5096 46.512C81.5213 50.1859 80.8042 53.8256 79.3999 57.2205C77.9956 60.6154 75.9319 63.6981 73.3283 66.2901C68.0724 71.5176 60.9659 74.4597 53.5531 74.4773H46.378C45.9774 72.5024 44.9092 70.7256 43.3529 69.4455C41.7966 68.1655 39.8471 67.4601 37.8321 67.4481C36.3661 67.4475 34.923 67.8117 33.6328 68.5077C32.3426 69.2037 31.2458 70.2098 30.4412 71.4352V71.5052C27.8211 70.1751 25.4446 68.4119 23.4119 66.2901C20.9502 63.8285 19.5735 61.5826 18.9931 60.1359C20.6086 59.7505 22.0722 58.8912 23.1961 57.6684C24.6985 56.0574 25.5281 53.9328 25.5148 51.73V46.512C25.5148 40.3578 27.5449 34.2706 31.3832 29.4172C36.8171 22.4609 44.8584 18.5496 53.5502 18.5496H53.5472ZM46.518 36.009C45.5964 36.0098 44.7129 36.3764 44.0615 37.0283C43.4101 37.6802 43.0442 38.5641 43.0442 39.4857C43.0438 39.9425 43.1335 40.3949 43.308 40.8171C43.4826 41.2392 43.7386 41.6228 44.0615 41.946C44.3844 42.2691 44.7678 42.5255 45.1898 42.7004C45.6118 42.8753 46.0641 42.9653 46.5209 42.9653C46.9775 42.9649 47.4295 42.8746 47.8512 42.6995C48.2728 42.5245 48.6559 42.2681 48.9785 41.9449C49.301 41.6218 49.5568 41.2383 49.7312 40.8164C49.9055 40.3944 49.9951 39.9423 49.9947 39.4857C49.9947 38.5636 49.6284 37.6793 48.9764 37.0273C48.3244 36.3753 47.4401 36.009 46.518 36.009ZM67.5299 36.009C66.6078 36.009 65.7235 36.3753 65.0715 37.0273C64.4195 37.6793 64.0532 38.5636 64.0532 39.4857C64.0528 39.9425 64.1425 40.3949 64.317 40.8171C64.4916 41.2392 64.7476 41.6228 65.0705 41.946C65.3934 42.2691 65.7767 42.5255 66.1987 42.7004C66.6208 42.8753 67.0731 42.9653 67.5299 42.9653C67.9867 42.9653 68.439 42.8753 68.8611 42.7004C69.2831 42.5255 69.6665 42.2691 69.9893 41.946C70.3122 41.6228 70.5682 41.2392 70.7428 40.8171C70.9173 40.3949 71.007 39.9425 71.0066 39.4857C71.0066 38.5636 70.6403 37.6793 69.9883 37.0273C69.3363 36.3753 68.452 36.009 67.5299 36.009ZM46.0134 49.9187C45.7208 49.9165 45.4323 49.9882 45.1748 50.1271C44.9173 50.2661 44.699 50.4678 44.5402 50.7136C44.3814 50.9594 44.2872 51.2413 44.2663 51.5332C44.2455 51.825 44.2986 52.1175 44.4209 52.3833C45.556 54.786 47.3498 56.8172 49.5938 58.2406C51.8377 59.6641 54.4395 60.4215 57.0969 60.4247C59.758 60.4372 62.3669 59.6864 64.6141 58.2611C66.8614 56.8358 68.6528 54.7959 69.7758 52.3833C69.8981 52.1172 69.9513 51.8246 69.9303 51.5324C69.9093 51.2403 69.8149 50.9582 69.6557 50.7123C69.4966 50.4665 69.2779 50.2648 69.0199 50.1261C68.762 49.9873 68.4732 49.916 68.1803 49.9187H68.1074C67.7819 49.9176 67.4634 50.0135 67.1927 50.1943C66.922 50.3751 66.7114 50.6326 66.5878 50.9337C65.7404 52.7339 64.3977 54.2554 62.7168 55.32C61.0359 56.3846 59.0865 56.9483 57.0969 56.945C55.1073 56.948 53.158 56.3841 51.4772 55.3196C49.7964 54.255 48.4536 52.7337 47.6059 50.9337C47.4547 50.6382 47.2274 50.3884 46.9475 50.21C46.6676 50.0316 46.3451 49.931 46.0134 49.9187Z" fill="black"/>
</svg>
