<svg width="16" height="16" viewBox="0 0 16 16" fill="none" xmlns="http://www.w3.org/2000/svg">
<path d="M7.33325 11.3333H8.66659V7.33333H7.33325V11.3333ZM7.99992 6C8.18881 6 8.34725 5.936 8.47525 5.80799C8.60325 5.68 8.66703 5.52177 8.66659 5.33333C8.66659 5.14444 8.60259 4.986 8.47459 4.858C8.34659 4.73 8.18836 4.66622 7.99992 4.66666C7.81103 4.66666 7.65259 4.73066 7.52459 4.85866C7.39659 4.98666 7.33281 5.14488 7.33325 5.33333C7.33325 5.52222 7.39725 5.68066 7.52525 5.80866C7.65325 5.93666 7.81147 6.00044 7.99992 6ZM7.99992 14.6667C7.0777 14.6667 6.21103 14.4916 5.39992 14.1413C4.58881 13.7911 3.88325 13.3162 3.28325 12.7167C2.68325 12.1167 2.20836 11.4111 1.85859 10.6C1.50881 9.78888 1.3337 8.92222 1.33325 8C1.33325 7.07777 1.50836 6.21111 1.85859 5.4C2.20881 4.58888 2.6837 3.88333 3.28325 3.28333C3.88325 2.68333 4.58881 2.20844 5.39992 1.85866C6.21103 1.50888 7.0777 1.33377 7.99992 1.33333C8.92214 1.33333 9.78881 1.50844 10.5999 1.85866C11.411 2.20888 12.1166 2.68377 12.7166 3.28333C13.3166 3.88333 13.7917 4.58888 14.1419 5.4C14.4921 6.21111 14.667 7.07777 14.6666 8C14.6666 8.92222 14.4915 9.78888 14.1413 10.6C13.791 11.4111 13.3161 12.1167 12.7166 12.7167C12.1166 13.3167 11.411 13.7918 10.5999 14.142C9.78881 14.4922 8.92214 14.6671 7.99992 14.6667ZM7.99992 13.3333C9.48881 13.3333 10.7499 12.8167 11.7833 11.7833C12.8166 10.75 13.3333 9.48888 13.3333 8C13.3333 6.51111 12.8166 5.24999 11.7833 4.21666C10.7499 3.18333 9.48881 2.66666 7.99992 2.66666C6.51103 2.66666 5.24992 3.18333 4.21659 4.21666C3.18325 5.24999 2.66659 6.51111 2.66659 8C2.66659 9.48888 3.18325 10.75 4.21659 11.7833C5.24992 12.8167 6.51103 13.3333 7.99992 13.3333Z" fill="#6E6E6E"/>
</svg>
